<mxfile host="app.diagrams.net" agent="Mozilla/5.0 (Windows NT 10.0; Win64; x64) AppleWebKit/537.36 (KHTML, like Gecko) Chrome/131.0.0.0 Safari/537.36" version="25.0.3">
  <diagram name="Side-1" id="MY8Rg-4v803_tE34nMPi">
    <mxGraphModel dx="588" dy="364" grid="0" gridSize="10" guides="1" tooltips="1" connect="1" arrows="1" fold="1" page="0" pageScale="1" pageWidth="827" pageHeight="1169" math="0" shadow="0">
      <root>
        <mxCell id="0" />
        <mxCell id="1" parent="0" />
        <mxCell id="lShVONtBbxbVJENVSIO_-3" value="" style="rounded=0;whiteSpace=wrap;html=1;fillColor=#f5f5f5;fontColor=#333333;strokeColor=#666666;" vertex="1" parent="1">
          <mxGeometry x="80" y="80" width="40" height="280" as="geometry" />
        </mxCell>
        <mxCell id="lShVONtBbxbVJENVSIO_-4" value="" style="rounded=0;whiteSpace=wrap;html=1;fillColor=#f5f5f5;fontColor=#333333;strokeColor=#666666;" vertex="1" parent="1">
          <mxGeometry x="240" y="100" width="40" height="240" as="geometry" />
        </mxCell>
        <mxCell id="lShVONtBbxbVJENVSIO_-5" value="" style="rounded=0;whiteSpace=wrap;html=1;fillColor=#f5f5f5;fontColor=#333333;strokeColor=#666666;" vertex="1" parent="1">
          <mxGeometry x="400" y="120" width="40" height="200" as="geometry" />
        </mxCell>
        <mxCell id="lShVONtBbxbVJENVSIO_-6" value="" style="rounded=0;whiteSpace=wrap;html=1;fillColor=#f5f5f5;fontColor=#333333;strokeColor=#666666;" vertex="1" parent="1">
          <mxGeometry x="560" y="140" width="40" height="160" as="geometry" />
        </mxCell>
        <mxCell id="lShVONtBbxbVJENVSIO_-11" style="edgeStyle=orthogonalEdgeStyle;rounded=0;orthogonalLoop=1;jettySize=auto;html=1;exitX=0.5;exitY=1;exitDx=0;exitDy=0;entryX=0.5;entryY=0;entryDx=0;entryDy=0;endArrow=none;endFill=0;dashed=1;" edge="1" parent="1" source="lShVONtBbxbVJENVSIO_-7" target="lShVONtBbxbVJENVSIO_-3">
          <mxGeometry relative="1" as="geometry" />
        </mxCell>
        <mxCell id="lShVONtBbxbVJENVSIO_-7" value="User" style="rounded=0;whiteSpace=wrap;html=1;fillColor=#f5f5f5;fontColor=#333333;strokeColor=#666666;" vertex="1" parent="1">
          <mxGeometry x="65" y="10" width="70" height="30" as="geometry" />
        </mxCell>
        <mxCell id="lShVONtBbxbVJENVSIO_-8" value="Chirp.Web" style="rounded=0;whiteSpace=wrap;html=1;fillColor=#f5f5f5;fontColor=#333333;strokeColor=#666666;" vertex="1" parent="1">
          <mxGeometry x="225" y="10" width="70" height="30" as="geometry" />
        </mxCell>
        <mxCell id="lShVONtBbxbVJENVSIO_-9" value="Chirp.Infrastructure" style="rounded=0;whiteSpace=wrap;html=1;fillColor=#f5f5f5;fontColor=#333333;strokeColor=#666666;" vertex="1" parent="1">
          <mxGeometry x="362.5" y="10" width="115" height="30" as="geometry" />
        </mxCell>
        <mxCell id="lShVONtBbxbVJENVSIO_-10" value="Database" style="rounded=0;whiteSpace=wrap;html=1;fillColor=#f5f5f5;fontColor=#333333;strokeColor=#666666;" vertex="1" parent="1">
          <mxGeometry x="545" y="10" width="70" height="30" as="geometry" />
        </mxCell>
        <mxCell id="lShVONtBbxbVJENVSIO_-12" style="edgeStyle=orthogonalEdgeStyle;rounded=0;orthogonalLoop=1;jettySize=auto;html=1;exitX=0.5;exitY=1;exitDx=0;exitDy=0;entryX=0.5;entryY=0;entryDx=0;entryDy=0;endArrow=none;endFill=0;dashed=1;" edge="1" parent="1" target="lShVONtBbxbVJENVSIO_-4">
          <mxGeometry relative="1" as="geometry">
            <mxPoint x="259.5" y="40" as="sourcePoint" />
            <mxPoint x="259.5" y="80" as="targetPoint" />
          </mxGeometry>
        </mxCell>
        <mxCell id="lShVONtBbxbVJENVSIO_-13" style="edgeStyle=orthogonalEdgeStyle;rounded=0;orthogonalLoop=1;jettySize=auto;html=1;exitX=0.5;exitY=1;exitDx=0;exitDy=0;entryX=0.5;entryY=0;entryDx=0;entryDy=0;endArrow=none;endFill=0;dashed=1;" edge="1" parent="1" source="lShVONtBbxbVJENVSIO_-9" target="lShVONtBbxbVJENVSIO_-5">
          <mxGeometry relative="1" as="geometry">
            <mxPoint x="417" y="40" as="sourcePoint" />
            <mxPoint x="417.5" y="100" as="targetPoint" />
          </mxGeometry>
        </mxCell>
        <mxCell id="lShVONtBbxbVJENVSIO_-14" style="edgeStyle=orthogonalEdgeStyle;rounded=0;orthogonalLoop=1;jettySize=auto;html=1;exitX=0.5;exitY=1;exitDx=0;exitDy=0;entryX=0.5;entryY=0;entryDx=0;entryDy=0;endArrow=none;endFill=0;dashed=1;" edge="1" parent="1" target="lShVONtBbxbVJENVSIO_-6">
          <mxGeometry relative="1" as="geometry">
            <mxPoint x="579.5" y="40" as="sourcePoint" />
            <mxPoint x="580" y="100" as="targetPoint" />
          </mxGeometry>
        </mxCell>
        <mxCell id="lShVONtBbxbVJENVSIO_-16" style="edgeStyle=orthogonalEdgeStyle;rounded=0;orthogonalLoop=1;jettySize=auto;html=1;exitX=0.5;exitY=1;exitDx=0;exitDy=0;entryX=0.5;entryY=0;entryDx=0;entryDy=0;endArrow=none;endFill=0;dashed=1;" edge="1" parent="1">
          <mxGeometry relative="1" as="geometry">
            <mxPoint x="259.5" y="340" as="sourcePoint" />
            <mxPoint x="260" y="440" as="targetPoint" />
          </mxGeometry>
        </mxCell>
        <mxCell id="lShVONtBbxbVJENVSIO_-17" style="edgeStyle=orthogonalEdgeStyle;rounded=0;orthogonalLoop=1;jettySize=auto;html=1;exitX=0.5;exitY=1;exitDx=0;exitDy=0;endArrow=none;endFill=0;dashed=1;" edge="1" parent="1">
          <mxGeometry relative="1" as="geometry">
            <mxPoint x="99.5" y="360" as="sourcePoint" />
            <mxPoint x="100" y="440" as="targetPoint" />
          </mxGeometry>
        </mxCell>
        <mxCell id="lShVONtBbxbVJENVSIO_-18" style="edgeStyle=orthogonalEdgeStyle;rounded=0;orthogonalLoop=1;jettySize=auto;html=1;exitX=0.5;exitY=1;exitDx=0;exitDy=0;endArrow=none;endFill=0;dashed=1;" edge="1" parent="1">
          <mxGeometry relative="1" as="geometry">
            <mxPoint x="417" y="320" as="sourcePoint" />
            <mxPoint x="417" y="440" as="targetPoint" />
          </mxGeometry>
        </mxCell>
        <mxCell id="lShVONtBbxbVJENVSIO_-19" style="edgeStyle=orthogonalEdgeStyle;rounded=0;orthogonalLoop=1;jettySize=auto;html=1;exitX=0.5;exitY=1;exitDx=0;exitDy=0;endArrow=none;endFill=0;dashed=1;" edge="1" parent="1">
          <mxGeometry relative="1" as="geometry">
            <mxPoint x="579.5" y="300" as="sourcePoint" />
            <mxPoint x="580" y="440" as="targetPoint" />
          </mxGeometry>
        </mxCell>
        <mxCell id="lShVONtBbxbVJENVSIO_-20" value="" style="endArrow=classic;html=1;rounded=0;exitX=1;exitY=0.25;exitDx=0;exitDy=0;entryX=-0.001;entryY=0.199;entryDx=0;entryDy=0;entryPerimeter=0;" edge="1" parent="1" source="lShVONtBbxbVJENVSIO_-4" target="lShVONtBbxbVJENVSIO_-5">
          <mxGeometry width="50" height="50" relative="1" as="geometry">
            <mxPoint x="350" y="230" as="sourcePoint" />
            <mxPoint x="340" y="170" as="targetPoint" />
          </mxGeometry>
        </mxCell>
        <mxCell id="lShVONtBbxbVJENVSIO_-21" value="" style="endArrow=classic;html=1;rounded=0;exitX=1.011;exitY=0.202;exitDx=0;exitDy=0;exitPerimeter=0;entryX=0.005;entryY=0.152;entryDx=0;entryDy=0;entryPerimeter=0;" edge="1" parent="1" source="lShVONtBbxbVJENVSIO_-3" target="lShVONtBbxbVJENVSIO_-4">
          <mxGeometry width="50" height="50" relative="1" as="geometry">
            <mxPoint x="350" y="230" as="sourcePoint" />
            <mxPoint x="400" y="180" as="targetPoint" />
          </mxGeometry>
        </mxCell>
        <mxCell id="lShVONtBbxbVJENVSIO_-22" value="&lt;font style=&quot;font-size: 9px;&quot;&gt;HTTP Request&lt;/font&gt;&lt;div&gt;&lt;font style=&quot;font-size: 9px;&quot;&gt;Path: &#39; / &#39;&amp;nbsp;&lt;/font&gt;&lt;/div&gt;" style="text;html=1;align=center;verticalAlign=middle;whiteSpace=wrap;rounded=0;" vertex="1" parent="1">
          <mxGeometry x="135" y="105" width="90" height="30" as="geometry" />
        </mxCell>
        <mxCell id="lShVONtBbxbVJENVSIO_-23" value="&lt;font style=&quot;font-size: 8px;&quot;&gt;C# Call&lt;/font&gt;&lt;div&gt;&lt;font style=&quot;font-size: 8px;&quot;&gt;CheepRepository.GetCheeps&lt;/font&gt;&lt;/div&gt;" style="text;html=1;align=center;verticalAlign=middle;whiteSpace=wrap;rounded=0;" vertex="1" parent="1">
          <mxGeometry x="267" y="129" width="135" height="30" as="geometry" />
        </mxCell>
        <mxCell id="lShVONtBbxbVJENVSIO_-24" value="" style="endArrow=classic;html=1;rounded=0;exitX=1.011;exitY=0.202;exitDx=0;exitDy=0;exitPerimeter=0;entryX=0.005;entryY=0.152;entryDx=0;entryDy=0;entryPerimeter=0;" edge="1" parent="1">
          <mxGeometry width="50" height="50" relative="1" as="geometry">
            <mxPoint x="440" y="181" as="sourcePoint" />
            <mxPoint x="560" y="180" as="targetPoint" />
          </mxGeometry>
        </mxCell>
        <mxCell id="lShVONtBbxbVJENVSIO_-25" value="&lt;font style=&quot;font-size: 8px;&quot;&gt;C# &amp;amp; SQL Call and Query&lt;/font&gt;&lt;div&gt;&lt;font style=&quot;font-size: 8px;&quot;&gt;ChatDBContext.Cheeps&lt;/font&gt;&lt;/div&gt;" style="text;html=1;align=center;verticalAlign=middle;whiteSpace=wrap;rounded=0;" vertex="1" parent="1">
          <mxGeometry x="430" y="150" width="135" height="30" as="geometry" />
        </mxCell>
        <mxCell id="lShVONtBbxbVJENVSIO_-26" value="" style="endArrow=classic;html=1;rounded=0;exitX=1.011;exitY=0.202;exitDx=0;exitDy=0;exitPerimeter=0;entryX=0.005;entryY=0.152;entryDx=0;entryDy=0;entryPerimeter=0;dashed=1;" edge="1" parent="1">
          <mxGeometry width="50" height="50" relative="1" as="geometry">
            <mxPoint x="560" y="260" as="sourcePoint" />
            <mxPoint x="440" y="261" as="targetPoint" />
          </mxGeometry>
        </mxCell>
        <mxCell id="lShVONtBbxbVJENVSIO_-27" value="&lt;font style=&quot;font-size: 8px;&quot;&gt;C# &amp;amp; SQL Response&lt;/font&gt;&lt;div&gt;&lt;span style=&quot;font-size: 8px;&quot;&gt;List&amp;lt;CheepDTO&amp;gt;&lt;/span&gt;&lt;/div&gt;" style="text;html=1;align=center;verticalAlign=middle;whiteSpace=wrap;rounded=0;" vertex="1" parent="1">
          <mxGeometry x="430" y="230" width="135" height="30" as="geometry" />
        </mxCell>
        <mxCell id="lShVONtBbxbVJENVSIO_-30" value="" style="endArrow=classic;html=1;rounded=0;exitX=1.011;exitY=0.202;exitDx=0;exitDy=0;exitPerimeter=0;entryX=0.005;entryY=0.152;entryDx=0;entryDy=0;entryPerimeter=0;dashed=1;" edge="1" parent="1">
          <mxGeometry width="50" height="50" relative="1" as="geometry">
            <mxPoint x="400" y="280" as="sourcePoint" />
            <mxPoint x="280" y="281" as="targetPoint" />
          </mxGeometry>
        </mxCell>
        <mxCell id="lShVONtBbxbVJENVSIO_-31" value="&lt;font style=&quot;font-size: 8px;&quot;&gt;C# &amp;amp; SQL Response&lt;/font&gt;&lt;div&gt;&lt;span style=&quot;font-size: 8px;&quot;&gt;List&amp;lt;CheepDTO&amp;gt;&lt;/span&gt;&lt;/div&gt;" style="text;html=1;align=center;verticalAlign=middle;whiteSpace=wrap;rounded=0;" vertex="1" parent="1">
          <mxGeometry x="270" y="250" width="135" height="30" as="geometry" />
        </mxCell>
        <mxCell id="lShVONtBbxbVJENVSIO_-32" value="" style="endArrow=classic;html=1;rounded=0;exitX=1.011;exitY=0.202;exitDx=0;exitDy=0;exitPerimeter=0;entryX=0.005;entryY=0.152;entryDx=0;entryDy=0;entryPerimeter=0;dashed=1;" edge="1" parent="1">
          <mxGeometry width="50" height="50" relative="1" as="geometry">
            <mxPoint x="240" y="299" as="sourcePoint" />
            <mxPoint x="120" y="300" as="targetPoint" />
          </mxGeometry>
        </mxCell>
        <mxCell id="lShVONtBbxbVJENVSIO_-33" value="&lt;font style=&quot;font-size: 9px;&quot;&gt;HTTP Response&lt;/font&gt;&lt;div&gt;&lt;div&gt;&lt;div&gt;&lt;font style=&quot;font-size: 9px;&quot;&gt;Path: &#39; / &#39;&amp;nbsp;&lt;/font&gt;&lt;/div&gt;&lt;/div&gt;&lt;/div&gt;" style="text;html=1;align=center;verticalAlign=middle;whiteSpace=wrap;rounded=0;" vertex="1" parent="1">
          <mxGeometry x="135" y="268" width="90" height="30" as="geometry" />
        </mxCell>
      </root>
    </mxGraphModel>
  </diagram>
</mxfile>
